<mxfile host="app.diagrams.net" agent="Mozilla/5.0 (X11; Ubuntu; Linux x86_64; rv:139.0) Gecko/20100101 Firefox/139.0" version="27.1.1">
  <diagram name="Page-1" id="BBwyY8dmLRAcq-_amI1H">
    <mxGraphModel dx="2359" dy="1338" grid="0" gridSize="10" guides="1" tooltips="1" connect="1" arrows="1" fold="1" page="0" pageScale="1" pageWidth="850" pageHeight="1100" math="0" shadow="0">
      <root>
        <mxCell id="0" />
        <mxCell id="1" parent="0" />
        <mxCell id="2KIVhRjF1y1EVybfexX1-1" value="Inmate" style="whiteSpace=wrap;html=1;align=center;" parent="1" vertex="1">
          <mxGeometry x="166" y="65" width="100" height="40" as="geometry" />
        </mxCell>
        <mxCell id="2KIVhRjF1y1EVybfexX1-4" value="participates" style="shape=rhombus;perimeter=rhombusPerimeter;whiteSpace=wrap;html=1;align=center;" parent="1" vertex="1">
          <mxGeometry x="-82" y="-60" width="120" height="60" as="geometry" />
        </mxCell>
        <mxCell id="2KIVhRjF1y1EVybfexX1-5" value="" style="endArrow=none;html=1;rounded=0;entryX=0.5;entryY=0;entryDx=0;entryDy=0;" parent="1" source="2KIVhRjF1y1EVybfexX1-6" target="2KIVhRjF1y1EVybfexX1-1" edge="1">
          <mxGeometry relative="1" as="geometry">
            <mxPoint x="143" y="-66" as="sourcePoint" />
            <mxPoint x="299" y="11" as="targetPoint" />
            <Array as="points" />
          </mxGeometry>
        </mxCell>
        <mxCell id="2KIVhRjF1y1EVybfexX1-6" value="commited" style="shape=rhombus;perimeter=rhombusPerimeter;whiteSpace=wrap;html=1;align=center;" parent="1" vertex="1">
          <mxGeometry x="160" y="-165" width="120" height="60" as="geometry" />
        </mxCell>
        <mxCell id="2KIVhRjF1y1EVybfexX1-7" value="" style="endArrow=none;html=1;rounded=0;entryX=1;entryY=0.5;entryDx=0;entryDy=0;shape=link;" parent="1" source="2KIVhRjF1y1EVybfexX1-8" target="2KIVhRjF1y1EVybfexX1-1" edge="1">
          <mxGeometry relative="1" as="geometry">
            <mxPoint x="602" y="83" as="sourcePoint" />
            <mxPoint x="758" y="160" as="targetPoint" />
            <Array as="points" />
          </mxGeometry>
        </mxCell>
        <mxCell id="2KIVhRjF1y1EVybfexX1-54" value="&lt;div&gt;(1,4)&lt;/div&gt;" style="edgeLabel;html=1;align=center;verticalAlign=middle;resizable=0;points=[];rotation=0;" parent="2KIVhRjF1y1EVybfexX1-7" vertex="1" connectable="0">
          <mxGeometry x="-0.0435" y="-2" relative="1" as="geometry">
            <mxPoint x="10" y="-10" as="offset" />
          </mxGeometry>
        </mxCell>
        <mxCell id="2KIVhRjF1y1EVybfexX1-8" value="is assigned to" style="shape=rhombus;perimeter=rhombusPerimeter;whiteSpace=wrap;html=1;align=center;" parent="1" vertex="1">
          <mxGeometry x="289" y="54" width="120" height="60" as="geometry" />
        </mxCell>
        <mxCell id="2KIVhRjF1y1EVybfexX1-9" value="" style="endArrow=none;html=1;rounded=0;entryX=0.5;entryY=0;entryDx=0;entryDy=0;" parent="1" source="2KIVhRjF1y1EVybfexX1-10" target="2KIVhRjF1y1EVybfexX1-29" edge="1">
          <mxGeometry relative="1" as="geometry">
            <mxPoint x="463" y="271" as="sourcePoint" />
            <mxPoint x="619" y="348" as="targetPoint" />
            <Array as="points" />
          </mxGeometry>
        </mxCell>
        <mxCell id="2KIVhRjF1y1EVybfexX1-10" value="is guarded by" style="shape=rhombus;perimeter=rhombusPerimeter;whiteSpace=wrap;html=1;align=center;" parent="1" vertex="1">
          <mxGeometry x="374" y="164" width="120" height="60" as="geometry" />
        </mxCell>
        <mxCell id="2KIVhRjF1y1EVybfexX1-14" value="" style="endArrow=none;html=1;rounded=0;exitX=0;exitY=0;exitDx=0;exitDy=0;" parent="1" source="2KIVhRjF1y1EVybfexX1-6" target="2KIVhRjF1y1EVybfexX1-15" edge="1">
          <mxGeometry relative="1" as="geometry">
            <mxPoint x="293.9999999999998" y="-142" as="sourcePoint" />
            <mxPoint x="367" y="-151" as="targetPoint" />
          </mxGeometry>
        </mxCell>
        <mxCell id="2KIVhRjF1y1EVybfexX1-15" value="Date" style="ellipse;whiteSpace=wrap;html=1;align=center;" parent="1" vertex="1">
          <mxGeometry x="74" y="-178" width="100" height="40" as="geometry" />
        </mxCell>
        <mxCell id="2KIVhRjF1y1EVybfexX1-17" value="" style="endArrow=none;html=1;rounded=0;exitX=1;exitY=1;exitDx=0;exitDy=0;entryX=0.25;entryY=0;entryDx=0;entryDy=0;" parent="1" source="2KIVhRjF1y1EVybfexX1-35" target="2KIVhRjF1y1EVybfexX1-23" edge="1">
          <mxGeometry relative="1" as="geometry">
            <mxPoint x="-138" y="-40" as="sourcePoint" />
            <mxPoint x="22" y="-40" as="targetPoint" />
          </mxGeometry>
        </mxCell>
        <mxCell id="2KIVhRjF1y1EVybfexX1-18" value="" style="endArrow=none;html=1;rounded=0;exitX=0.5;exitY=1;exitDx=0;exitDy=0;" parent="1" source="2KIVhRjF1y1EVybfexX1-1" target="2KIVhRjF1y1EVybfexX1-55" edge="1">
          <mxGeometry relative="1" as="geometry">
            <mxPoint x="136" y="149" as="sourcePoint" />
            <mxPoint x="216" y="146" as="targetPoint" />
          </mxGeometry>
        </mxCell>
        <mxCell id="2KIVhRjF1y1EVybfexX1-19" value="" style="endArrow=none;html=1;rounded=0;entryX=0.5;entryY=1;entryDx=0;entryDy=0;exitX=1;exitY=0;exitDx=0;exitDy=0;shape=link;" parent="1" source="2KIVhRjF1y1EVybfexX1-10" target="2KIVhRjF1y1EVybfexX1-27" edge="1">
          <mxGeometry relative="1" as="geometry">
            <mxPoint x="-172" y="122" as="sourcePoint" />
            <mxPoint x="-19" y="122" as="targetPoint" />
          </mxGeometry>
        </mxCell>
        <mxCell id="2KIVhRjF1y1EVybfexX1-20" value="" style="endArrow=none;html=1;rounded=0;entryX=0.419;entryY=0;entryDx=0;entryDy=0;entryPerimeter=0;exitX=0.5;exitY=1;exitDx=0;exitDy=0;" parent="1" source="2KIVhRjF1y1EVybfexX1-72" target="2KIVhRjF1y1EVybfexX1-78" edge="1">
          <mxGeometry relative="1" as="geometry">
            <mxPoint x="-347.5" y="252.5" as="sourcePoint" />
            <mxPoint x="-187.5" y="252.5" as="targetPoint" />
          </mxGeometry>
        </mxCell>
        <mxCell id="2KIVhRjF1y1EVybfexX1-21" value="" style="endArrow=none;html=1;rounded=0;exitX=1;exitY=0.5;exitDx=0;exitDy=0;entryX=0;entryY=0.5;entryDx=0;entryDy=0;" parent="1" source="2KIVhRjF1y1EVybfexX1-34" target="2KIVhRjF1y1EVybfexX1-25" edge="1">
          <mxGeometry relative="1" as="geometry">
            <mxPoint x="145" y="-225" as="sourcePoint" />
            <mxPoint x="305" y="-225" as="targetPoint" />
          </mxGeometry>
        </mxCell>
        <mxCell id="2KIVhRjF1y1EVybfexX1-22" value="" style="endArrow=none;html=1;rounded=0;exitX=1;exitY=0.5;exitDx=0;exitDy=0;entryX=0;entryY=0.5;entryDx=0;entryDy=0;" parent="1" source="2KIVhRjF1y1EVybfexX1-33" target="2KIVhRjF1y1EVybfexX1-23" edge="1">
          <mxGeometry relative="1" as="geometry">
            <mxPoint x="-72" y="-189" as="sourcePoint" />
            <mxPoint x="88" y="-189" as="targetPoint" />
          </mxGeometry>
        </mxCell>
        <mxCell id="2KIVhRjF1y1EVybfexX1-23" value="&lt;div&gt;Program&lt;/div&gt;" style="whiteSpace=wrap;html=1;align=center;" parent="1" vertex="1">
          <mxGeometry x="-72" y="-278" width="100" height="40" as="geometry" />
        </mxCell>
        <mxCell id="2KIVhRjF1y1EVybfexX1-24" value="" style="endArrow=none;html=1;rounded=0;entryX=0.5;entryY=1;entryDx=0;entryDy=0;exitX=0.5;exitY=0;exitDx=0;exitDy=0;" parent="1" source="2KIVhRjF1y1EVybfexX1-4" target="2KIVhRjF1y1EVybfexX1-23" edge="1">
          <mxGeometry relative="1" as="geometry">
            <mxPoint x="278" y="-184" as="sourcePoint" />
            <mxPoint x="99" y="-134" as="targetPoint" />
            <Array as="points" />
          </mxGeometry>
        </mxCell>
        <mxCell id="2KIVhRjF1y1EVybfexX1-25" value="Crime" style="whiteSpace=wrap;html=1;align=center;" parent="1" vertex="1">
          <mxGeometry x="168" y="-278" width="100" height="40" as="geometry" />
        </mxCell>
        <mxCell id="2KIVhRjF1y1EVybfexX1-26" value="" style="endArrow=none;html=1;rounded=0;entryX=0.5;entryY=1;entryDx=0;entryDy=0;exitX=0.5;exitY=0;exitDx=0;exitDy=0;" parent="1" source="2KIVhRjF1y1EVybfexX1-6" target="2KIVhRjF1y1EVybfexX1-25" edge="1">
          <mxGeometry relative="1" as="geometry">
            <mxPoint x="563" y="-135" as="sourcePoint" />
            <mxPoint x="876" y="-10" as="targetPoint" />
            <Array as="points" />
          </mxGeometry>
        </mxCell>
        <mxCell id="2KIVhRjF1y1EVybfexX1-27" value="Cell" style="whiteSpace=wrap;html=1;align=center;" parent="1" vertex="1">
          <mxGeometry x="455" y="64" width="100" height="40" as="geometry" />
        </mxCell>
        <mxCell id="2KIVhRjF1y1EVybfexX1-28" value="" style="endArrow=none;html=1;rounded=0;entryX=0;entryY=0.5;entryDx=0;entryDy=0;exitX=1;exitY=0.5;exitDx=0;exitDy=0;" parent="1" source="2KIVhRjF1y1EVybfexX1-8" target="2KIVhRjF1y1EVybfexX1-27" edge="1">
          <mxGeometry relative="1" as="geometry">
            <mxPoint x="775" y="-99" as="sourcePoint" />
            <mxPoint x="1088" y="26" as="targetPoint" />
            <Array as="points" />
          </mxGeometry>
        </mxCell>
        <mxCell id="2KIVhRjF1y1EVybfexX1-29" value="Guard" style="whiteSpace=wrap;html=1;align=center;" parent="1" vertex="1">
          <mxGeometry x="342" y="275" width="100" height="40" as="geometry" />
        </mxCell>
        <mxCell id="2KIVhRjF1y1EVybfexX1-30" value="" style="endArrow=none;html=1;rounded=0;entryX=1;entryY=0.5;entryDx=0;entryDy=0;exitX=0;exitY=0.5;exitDx=0;exitDy=0;" parent="1" source="2KIVhRjF1y1EVybfexX1-140" target="2KIVhRjF1y1EVybfexX1-29" edge="1">
          <mxGeometry relative="1" as="geometry">
            <mxPoint x="490" y="295" as="sourcePoint" />
            <mxPoint x="1032" y="502" as="targetPoint" />
            <Array as="points" />
          </mxGeometry>
        </mxCell>
        <mxCell id="2KIVhRjF1y1EVybfexX1-33" value="ProgramID" style="ellipse;whiteSpace=wrap;html=1;align=center;fontStyle=4;" parent="1" vertex="1">
          <mxGeometry x="-191" y="-278" width="100" height="40" as="geometry" />
        </mxCell>
        <mxCell id="2KIVhRjF1y1EVybfexX1-34" value="CrimeID" style="ellipse;whiteSpace=wrap;html=1;align=center;fontStyle=4;" parent="1" vertex="1">
          <mxGeometry x="49" y="-278" width="100" height="40" as="geometry" />
        </mxCell>
        <mxCell id="2KIVhRjF1y1EVybfexX1-35" value="StartDate" style="ellipse;whiteSpace=wrap;html=1;align=center;" parent="1" vertex="1">
          <mxGeometry x="-156" y="-341" width="100" height="40" as="geometry" />
        </mxCell>
        <mxCell id="2KIVhRjF1y1EVybfexX1-36" value="EndDate" style="ellipse;whiteSpace=wrap;html=1;align=center;" parent="1" vertex="1">
          <mxGeometry x="-33" y="-351" width="100" height="40" as="geometry" />
        </mxCell>
        <mxCell id="2KIVhRjF1y1EVybfexX1-37" value="&lt;div&gt;ProgramName&lt;/div&gt;" style="ellipse;whiteSpace=wrap;html=1;align=center;" parent="1" vertex="1">
          <mxGeometry x="-142" y="-218" width="100" height="40" as="geometry" />
        </mxCell>
        <mxCell id="2KIVhRjF1y1EVybfexX1-38" value="" style="endArrow=none;html=1;rounded=0;exitX=0.5;exitY=0;exitDx=0;exitDy=0;entryX=0.25;entryY=1;entryDx=0;entryDy=0;" parent="1" source="2KIVhRjF1y1EVybfexX1-37" target="2KIVhRjF1y1EVybfexX1-23" edge="1">
          <mxGeometry relative="1" as="geometry">
            <mxPoint x="-56" y="-240" as="sourcePoint" />
            <mxPoint x="-37" y="-240" as="targetPoint" />
          </mxGeometry>
        </mxCell>
        <mxCell id="2KIVhRjF1y1EVybfexX1-39" value="" style="endArrow=none;html=1;rounded=0;exitX=0.45;exitY=0;exitDx=0;exitDy=0;entryX=0.5;entryY=1;entryDx=0;entryDy=0;exitPerimeter=0;" parent="1" source="2KIVhRjF1y1EVybfexX1-23" target="2KIVhRjF1y1EVybfexX1-36" edge="1">
          <mxGeometry relative="1" as="geometry">
            <mxPoint x="-7" y="-297" as="sourcePoint" />
            <mxPoint x="12" y="-297" as="targetPoint" />
          </mxGeometry>
        </mxCell>
        <mxCell id="2KIVhRjF1y1EVybfexX1-41" value="" style="endArrow=none;html=1;rounded=0;exitX=1;exitY=1;exitDx=0;exitDy=0;entryX=0.219;entryY=-0.007;entryDx=0;entryDy=0;entryPerimeter=0;" parent="1" source="2KIVhRjF1y1EVybfexX1-42" target="2KIVhRjF1y1EVybfexX1-25" edge="1">
          <mxGeometry relative="1" as="geometry">
            <mxPoint x="109" y="-53" as="sourcePoint" />
            <mxPoint x="200" y="-291" as="targetPoint" />
          </mxGeometry>
        </mxCell>
        <mxCell id="2KIVhRjF1y1EVybfexX1-42" value="Serverity" style="ellipse;whiteSpace=wrap;html=1;align=center;" parent="1" vertex="1">
          <mxGeometry x="96" y="-341" width="100" height="40" as="geometry" />
        </mxCell>
        <mxCell id="2KIVhRjF1y1EVybfexX1-43" value="Description" style="ellipse;whiteSpace=wrap;html=1;align=center;" parent="1" vertex="1">
          <mxGeometry x="211" y="-341" width="100" height="40" as="geometry" />
        </mxCell>
        <mxCell id="2KIVhRjF1y1EVybfexX1-44" value="" style="endArrow=none;html=1;rounded=0;exitX=0.75;exitY=0;exitDx=0;exitDy=0;entryX=0.5;entryY=1;entryDx=0;entryDy=0;" parent="1" source="2KIVhRjF1y1EVybfexX1-25" target="2KIVhRjF1y1EVybfexX1-43" edge="1">
          <mxGeometry relative="1" as="geometry">
            <mxPoint x="220" y="-291" as="sourcePoint" />
            <mxPoint x="259" y="-310" as="targetPoint" />
          </mxGeometry>
        </mxCell>
        <mxCell id="2KIVhRjF1y1EVybfexX1-45" value="" style="endArrow=none;html=1;rounded=0;exitX=0.921;exitY=0.721;exitDx=0;exitDy=0;exitPerimeter=0;entryX=0.058;entryY=0.003;entryDx=0;entryDy=0;entryPerimeter=0;" parent="1" source="2KIVhRjF1y1EVybfexX1-47" target="2KIVhRjF1y1EVybfexX1-27" edge="1">
          <mxGeometry relative="1" as="geometry">
            <mxPoint x="406" y="-62" as="sourcePoint" />
            <mxPoint x="459" y="62" as="targetPoint" />
          </mxGeometry>
        </mxCell>
        <mxCell id="2KIVhRjF1y1EVybfexX1-47" value="CellID" style="ellipse;whiteSpace=wrap;html=1;align=center;fontStyle=4;" parent="1" vertex="1">
          <mxGeometry x="355" y="18" width="100" height="40" as="geometry" />
        </mxCell>
        <mxCell id="2KIVhRjF1y1EVybfexX1-48" value="" style="endArrow=none;html=1;rounded=0;exitX=1;exitY=1;exitDx=0;exitDy=0;entryX=0.413;entryY=0.003;entryDx=0;entryDy=0;entryPerimeter=0;" parent="1" source="2KIVhRjF1y1EVybfexX1-49" target="2KIVhRjF1y1EVybfexX1-27" edge="1">
          <mxGeometry relative="1" as="geometry">
            <mxPoint x="370" y="110" as="sourcePoint" />
            <mxPoint x="450.9000000000001" y="-115.27999999999997" as="targetPoint" />
          </mxGeometry>
        </mxCell>
        <mxCell id="2KIVhRjF1y1EVybfexX1-49" value="CellNumber" style="ellipse;whiteSpace=wrap;html=1;align=center;" parent="1" vertex="1">
          <mxGeometry x="399" y="-82" width="100" height="40" as="geometry" />
        </mxCell>
        <mxCell id="2KIVhRjF1y1EVybfexX1-50" value="Location" style="ellipse;whiteSpace=wrap;html=1;align=center;" parent="1" vertex="1">
          <mxGeometry x="359" y="102" width="100" height="40" as="geometry" />
        </mxCell>
        <mxCell id="2KIVhRjF1y1EVybfexX1-51" value="" style="endArrow=none;html=1;rounded=0;exitX=0;exitY=1;exitDx=0;exitDy=0;entryX=1;entryY=0;entryDx=0;entryDy=0;" parent="1" source="2KIVhRjF1y1EVybfexX1-27" target="2KIVhRjF1y1EVybfexX1-50" edge="1">
          <mxGeometry relative="1" as="geometry">
            <mxPoint x="504" y="-115" as="sourcePoint" />
            <mxPoint x="520" y="-147" as="targetPoint" />
          </mxGeometry>
        </mxCell>
        <mxCell id="2KIVhRjF1y1EVybfexX1-52" value="Capacity" style="ellipse;whiteSpace=wrap;html=1;align=center;" parent="1" vertex="1">
          <mxGeometry x="380" y="-37" width="100" height="40" as="geometry" />
        </mxCell>
        <mxCell id="2KIVhRjF1y1EVybfexX1-53" value="" style="endArrow=none;html=1;rounded=0;exitX=0.25;exitY=0;exitDx=0;exitDy=0;entryX=1;entryY=1;entryDx=0;entryDy=0;" parent="1" source="2KIVhRjF1y1EVybfexX1-27" target="2KIVhRjF1y1EVybfexX1-52" edge="1">
          <mxGeometry relative="1" as="geometry">
            <mxPoint x="586" y="-57" as="sourcePoint" />
            <mxPoint x="602" y="-102" as="targetPoint" />
          </mxGeometry>
        </mxCell>
        <mxCell id="2KIVhRjF1y1EVybfexX1-55" value="&lt;div align=&quot;center&quot;&gt;&lt;font style=&quot;font-size: 18px;&quot;&gt;o&lt;/font&gt;&lt;/div&gt;" style="ellipse;whiteSpace=wrap;html=1;align=center;" parent="1" vertex="1">
          <mxGeometry x="157" y="174" width="39" height="40" as="geometry" />
        </mxCell>
        <mxCell id="2KIVhRjF1y1EVybfexX1-60" value="" style="endArrow=none;html=1;rounded=0;exitX=0.5;exitY=1;exitDx=0;exitDy=0;entryX=0.5;entryY=0;entryDx=0;entryDy=0;" parent="1" source="2KIVhRjF1y1EVybfexX1-55" target="2KIVhRjF1y1EVybfexX1-72" edge="1">
          <mxGeometry x="-0.0021" y="-24" relative="1" as="geometry">
            <mxPoint x="117" y="273" as="sourcePoint" />
            <mxPoint x="141" y="295" as="targetPoint" />
            <mxPoint as="offset" />
          </mxGeometry>
        </mxCell>
        <mxCell id="2KIVhRjF1y1EVybfexX1-61" value="" style="endArrow=none;html=1;rounded=0;exitX=0;exitY=0.5;exitDx=0;exitDy=0;entryX=1;entryY=0.5;entryDx=0;entryDy=0;" parent="1" source="2KIVhRjF1y1EVybfexX1-55" target="2KIVhRjF1y1EVybfexX1-68" edge="1">
          <mxGeometry relative="1" as="geometry">
            <mxPoint x="44" y="255" as="sourcePoint" />
            <mxPoint x="55" y="302" as="targetPoint" />
          </mxGeometry>
        </mxCell>
        <mxCell id="2KIVhRjF1y1EVybfexX1-64" value="" style="shape=requiredInterface;html=1;verticalLabelPosition=bottom;sketch=0;rotation=90;" parent="1" vertex="1">
          <mxGeometry x="171" y="231" width="10" height="20" as="geometry" />
        </mxCell>
        <mxCell id="2KIVhRjF1y1EVybfexX1-65" value="" style="shape=requiredInterface;html=1;verticalLabelPosition=bottom;sketch=0;rotation=-180;" parent="1" vertex="1">
          <mxGeometry x="111.99739094718024" y="185.0041381910189" width="10" height="20" as="geometry" />
        </mxCell>
        <mxCell id="2KIVhRjF1y1EVybfexX1-67" value="" style="endArrow=none;html=1;rounded=0;exitX=1;exitY=0.5;exitDx=0;exitDy=0;entryX=0;entryY=0.5;entryDx=0;entryDy=0;" parent="1" source="2KIVhRjF1y1EVybfexX1-76" target="2KIVhRjF1y1EVybfexX1-68" edge="1">
          <mxGeometry relative="1" as="geometry">
            <mxPoint x="-70" y="249" as="sourcePoint" />
            <mxPoint x="109" y="318" as="targetPoint" />
          </mxGeometry>
        </mxCell>
        <mxCell id="2KIVhRjF1y1EVybfexX1-68" value="WorkingInmate" style="whiteSpace=wrap;html=1;align=center;" parent="1" vertex="1">
          <mxGeometry x="-26" y="176" width="100" height="40" as="geometry" />
        </mxCell>
        <mxCell id="2KIVhRjF1y1EVybfexX1-69" value="JobDescription" style="ellipse;whiteSpace=wrap;html=1;align=center;" parent="1" vertex="1">
          <mxGeometry x="-93" y="224" width="100" height="40" as="geometry" />
        </mxCell>
        <mxCell id="2KIVhRjF1y1EVybfexX1-70" value="" style="endArrow=none;html=1;rounded=0;exitX=0.762;exitY=0.089;exitDx=0;exitDy=0;entryX=0.25;entryY=1;entryDx=0;entryDy=0;exitPerimeter=0;" parent="1" source="2KIVhRjF1y1EVybfexX1-69" target="2KIVhRjF1y1EVybfexX1-68" edge="1">
          <mxGeometry relative="1" as="geometry">
            <mxPoint x="-35" y="267" as="sourcePoint" />
            <mxPoint x="-16" y="267" as="targetPoint" />
          </mxGeometry>
        </mxCell>
        <mxCell id="2KIVhRjF1y1EVybfexX1-71" value="" style="endArrow=none;html=1;rounded=0;entryX=1;entryY=0.5;entryDx=0;entryDy=0;exitX=0;exitY=0.5;exitDx=0;exitDy=0;" parent="1" source="2KIVhRjF1y1EVybfexX1-72" target="2KIVhRjF1y1EVybfexX1-75" edge="1">
          <mxGeometry relative="1" as="geometry">
            <mxPoint x="118" y="273" as="sourcePoint" />
            <mxPoint x="114.5" y="288.5" as="targetPoint" />
          </mxGeometry>
        </mxCell>
        <mxCell id="2KIVhRjF1y1EVybfexX1-72" value="EducationalInmate" style="whiteSpace=wrap;html=1;align=center;" parent="1" vertex="1">
          <mxGeometry x="118.25" y="263" width="116.5" height="40" as="geometry" />
        </mxCell>
        <mxCell id="2KIVhRjF1y1EVybfexX1-73" value="CourseName" style="ellipse;whiteSpace=wrap;html=1;align=center;" parent="1" vertex="1">
          <mxGeometry x="19" y="315" width="100" height="40" as="geometry" />
        </mxCell>
        <mxCell id="2KIVhRjF1y1EVybfexX1-74" value="" style="endArrow=none;html=1;rounded=0;exitX=1;exitY=0;exitDx=0;exitDy=0;entryX=0.25;entryY=1;entryDx=0;entryDy=0;" parent="1" source="2KIVhRjF1y1EVybfexX1-73" target="2KIVhRjF1y1EVybfexX1-72" edge="1">
          <mxGeometry relative="1" as="geometry">
            <mxPoint x="138" y="341" as="sourcePoint" />
            <mxPoint x="157" y="341" as="targetPoint" />
          </mxGeometry>
        </mxCell>
        <mxCell id="2KIVhRjF1y1EVybfexX1-75" value="LearningField" style="ellipse;whiteSpace=wrap;html=1;align=center;" parent="1" vertex="1">
          <mxGeometry y="264" width="100" height="40" as="geometry" />
        </mxCell>
        <mxCell id="2KIVhRjF1y1EVybfexX1-76" value="Hours" style="ellipse;whiteSpace=wrap;html=1;align=center;" parent="1" vertex="1">
          <mxGeometry x="-151" y="176" width="100" height="40" as="geometry" />
        </mxCell>
        <mxCell id="2KIVhRjF1y1EVybfexX1-78" value="&lt;div&gt;ProgramName&lt;/div&gt;" style="ellipse;whiteSpace=wrap;html=1;align=center;" parent="1" vertex="1">
          <mxGeometry x="130" y="319" width="100" height="40" as="geometry" />
        </mxCell>
        <mxCell id="2KIVhRjF1y1EVybfexX1-79" value="" style="endArrow=none;html=1;rounded=0;exitX=0.5;exitY=0;exitDx=0;exitDy=0;entryX=0.5;entryY=1;entryDx=0;entryDy=0;" parent="1" source="2KIVhRjF1y1EVybfexX1-82" target="2KIVhRjF1y1EVybfexX1-97" edge="1">
          <mxGeometry relative="1" as="geometry">
            <mxPoint x="810" y="49" as="sourcePoint" />
            <mxPoint x="762" y="99" as="targetPoint" />
            <Array as="points" />
          </mxGeometry>
        </mxCell>
        <mxCell id="2KIVhRjF1y1EVybfexX1-81" value="" style="endArrow=none;html=1;rounded=0;entryX=0.5;entryY=1;entryDx=0;entryDy=0;exitX=0.5;exitY=0;exitDx=0;exitDy=0;" parent="1" source="2KIVhRjF1y1EVybfexX1-27" target="2KIVhRjF1y1EVybfexX1-82" edge="1">
          <mxGeometry relative="1" as="geometry">
            <mxPoint x="298" y="-77" as="sourcePoint" />
            <mxPoint x="699" y="234" as="targetPoint" />
          </mxGeometry>
        </mxCell>
        <mxCell id="2KIVhRjF1y1EVybfexX1-82" value="contains" style="shape=rhombus;double=1;perimeter=rhombusPerimeter;whiteSpace=wrap;html=1;align=center;" parent="1" vertex="1">
          <mxGeometry x="445" y="-179" width="120" height="60" as="geometry" />
        </mxCell>
        <mxCell id="2KIVhRjF1y1EVybfexX1-84" value="Staff" style="whiteSpace=wrap;html=1;align=center;" parent="1" vertex="1">
          <mxGeometry x="142" y="386" width="100" height="40" as="geometry" />
        </mxCell>
        <mxCell id="2KIVhRjF1y1EVybfexX1-85" value="" style="endArrow=none;html=1;rounded=0;exitX=1;exitY=0.5;exitDx=0;exitDy=0;shape=link;" parent="1" source="2KIVhRjF1y1EVybfexX1-84" target="2KIVhRjF1y1EVybfexX1-86" edge="1">
          <mxGeometry relative="1" as="geometry">
            <mxPoint x="176" y="653" as="sourcePoint" />
            <mxPoint x="256" y="650" as="targetPoint" />
          </mxGeometry>
        </mxCell>
        <mxCell id="2KIVhRjF1y1EVybfexX1-86" value="&lt;font style=&quot;font-size: 14px;&quot;&gt;d&lt;/font&gt;" style="ellipse;whiteSpace=wrap;html=1;align=center;" parent="1" vertex="1">
          <mxGeometry x="308" y="384" width="39" height="40" as="geometry" />
        </mxCell>
        <mxCell id="2KIVhRjF1y1EVybfexX1-87" value="" style="endArrow=none;html=1;rounded=0;entryX=0.5;entryY=1;entryDx=0;entryDy=0;" parent="1" source="2KIVhRjF1y1EVybfexX1-86" target="2KIVhRjF1y1EVybfexX1-29" edge="1">
          <mxGeometry x="-0.0021" y="-24" relative="1" as="geometry">
            <mxPoint x="274" y="692" as="sourcePoint" />
            <mxPoint x="298" y="714" as="targetPoint" />
            <mxPoint as="offset" />
          </mxGeometry>
        </mxCell>
        <mxCell id="2KIVhRjF1y1EVybfexX1-88" value="" style="endArrow=none;html=1;rounded=0;exitX=1;exitY=0.5;exitDx=0;exitDy=0;entryX=0;entryY=0.5;entryDx=0;entryDy=0;" parent="1" source="2KIVhRjF1y1EVybfexX1-86" target="2KIVhRjF1y1EVybfexX1-91" edge="1">
          <mxGeometry relative="1" as="geometry">
            <mxPoint x="349.001037505526" y="439.00107455929475" as="sourcePoint" />
            <mxPoint x="451.7800000000002" y="419.79" as="targetPoint" />
          </mxGeometry>
        </mxCell>
        <mxCell id="2KIVhRjF1y1EVybfexX1-89" value="" style="shape=requiredInterface;html=1;verticalLabelPosition=bottom;sketch=0;rotation=-180;" parent="1" vertex="1">
          <mxGeometry x="370" y="389.97999999999996" width="18" height="29.02" as="geometry" />
        </mxCell>
        <mxCell id="2KIVhRjF1y1EVybfexX1-91" value="Adminstrative Staff" style="whiteSpace=wrap;html=1;align=center;" parent="1" vertex="1">
          <mxGeometry x="424" y="384" width="100" height="40" as="geometry" />
        </mxCell>
        <mxCell id="2KIVhRjF1y1EVybfexX1-92" value="" style="endArrow=none;html=1;rounded=0;entryX=0.423;entryY=0.976;entryDx=0;entryDy=0;entryPerimeter=0;exitX=1;exitY=0;exitDx=0;exitDy=0;" parent="1" source="2KIVhRjF1y1EVybfexX1-104" target="2KIVhRjF1y1EVybfexX1-97" edge="1">
          <mxGeometry relative="1" as="geometry">
            <mxPoint x="542" y="-40" as="sourcePoint" />
            <mxPoint x="372" y="477" as="targetPoint" />
          </mxGeometry>
        </mxCell>
        <mxCell id="2KIVhRjF1y1EVybfexX1-97" value="Storage" style="shape=ext;margin=3;double=1;whiteSpace=wrap;html=1;align=center;" parent="1" vertex="1">
          <mxGeometry x="455" y="-265" width="100" height="40" as="geometry" />
        </mxCell>
        <mxCell id="2KIVhRjF1y1EVybfexX1-98" value="StorageNumber" style="ellipse;whiteSpace=wrap;html=1;align=center;fontStyle=4;" parent="1" vertex="1">
          <mxGeometry x="325" y="-265" width="100" height="40" as="geometry" />
        </mxCell>
        <mxCell id="2KIVhRjF1y1EVybfexX1-100" value="" style="endArrow=none;html=1;rounded=0;entryX=1;entryY=0.5;entryDx=0;entryDy=0;exitX=0;exitY=0.5;exitDx=0;exitDy=0;" parent="1" source="2KIVhRjF1y1EVybfexX1-97" target="2KIVhRjF1y1EVybfexX1-98" edge="1">
          <mxGeometry relative="1" as="geometry">
            <mxPoint x="694" y="322" as="sourcePoint" />
            <mxPoint x="692" y="229" as="targetPoint" />
            <Array as="points" />
          </mxGeometry>
        </mxCell>
        <mxCell id="2KIVhRjF1y1EVybfexX1-101" value="" style="endArrow=none;html=1;rounded=0;entryX=0.25;entryY=0;entryDx=0;entryDy=0;exitX=1;exitY=1;exitDx=0;exitDy=0;" parent="1" source="2KIVhRjF1y1EVybfexX1-103" target="2KIVhRjF1y1EVybfexX1-97" edge="1">
          <mxGeometry relative="1" as="geometry">
            <mxPoint x="634" y="-72" as="sourcePoint" />
            <mxPoint x="782" y="234" as="targetPoint" />
          </mxGeometry>
        </mxCell>
        <mxCell id="2KIVhRjF1y1EVybfexX1-103" value="Volume" style="ellipse;whiteSpace=wrap;html=1;align=center;" parent="1" vertex="1">
          <mxGeometry x="387" y="-319" width="100" height="40" as="geometry" />
        </mxCell>
        <mxCell id="2KIVhRjF1y1EVybfexX1-104" value="Description" style="ellipse;whiteSpace=wrap;html=1;align=center;" parent="1" vertex="1">
          <mxGeometry x="355" y="-204" width="100" height="40" as="geometry" />
        </mxCell>
        <mxCell id="2KIVhRjF1y1EVybfexX1-106" value="Name" style="ellipse;whiteSpace=wrap;html=1;align=center;" parent="1" vertex="1">
          <mxGeometry x="107" y="-36" width="100" height="40" as="geometry" />
        </mxCell>
        <mxCell id="2KIVhRjF1y1EVybfexX1-107" value="BirthDate" style="ellipse;whiteSpace=wrap;html=1;align=center;" parent="1" vertex="1">
          <mxGeometry x="230" y="17" width="100" height="40" as="geometry" />
        </mxCell>
        <mxCell id="2KIVhRjF1y1EVybfexX1-108" value="Age" style="ellipse;whiteSpace=wrap;html=1;align=center;dashed=1;" parent="1" vertex="1">
          <mxGeometry x="230" y="112" width="100" height="40" as="geometry" />
        </mxCell>
        <mxCell id="2KIVhRjF1y1EVybfexX1-110" value="ID" style="ellipse;whiteSpace=wrap;html=1;align=center;fontStyle=4;" parent="1" vertex="1">
          <mxGeometry x="-4" y="28" width="100" height="40" as="geometry" />
        </mxCell>
        <mxCell id="2KIVhRjF1y1EVybfexX1-111" value="Special Equpiment" style="ellipse;shape=doubleEllipse;margin=3;whiteSpace=wrap;html=1;align=center;" parent="1" vertex="1">
          <mxGeometry x="266" y="202" width="100" height="40" as="geometry" />
        </mxCell>
        <mxCell id="2KIVhRjF1y1EVybfexX1-112" value="LastName" style="ellipse;whiteSpace=wrap;html=1;align=center;" parent="1" vertex="1">
          <mxGeometry x="112" y="-100" width="100" height="40" as="geometry" />
        </mxCell>
        <mxCell id="2KIVhRjF1y1EVybfexX1-113" value="FirstName" style="ellipse;whiteSpace=wrap;html=1;align=center;" parent="1" vertex="1">
          <mxGeometry x="19" y="-79" width="100" height="40" as="geometry" />
        </mxCell>
        <mxCell id="2KIVhRjF1y1EVybfexX1-114" value="" style="endArrow=none;html=1;rounded=0;exitX=1;exitY=1;exitDx=0;exitDy=0;entryX=0;entryY=0;entryDx=0;entryDy=0;" parent="1" source="2KIVhRjF1y1EVybfexX1-4" target="2KIVhRjF1y1EVybfexX1-1" edge="1">
          <mxGeometry relative="1" as="geometry">
            <mxPoint x="295" y="-22" as="sourcePoint" />
            <mxPoint x="455" y="-22" as="targetPoint" />
          </mxGeometry>
        </mxCell>
        <mxCell id="2KIVhRjF1y1EVybfexX1-115" value="" style="endArrow=none;html=1;rounded=0;entryX=0.102;entryY=0.177;entryDx=0;entryDy=0;exitX=1;exitY=1;exitDx=0;exitDy=0;entryPerimeter=0;" parent="1" source="2KIVhRjF1y1EVybfexX1-113" target="2KIVhRjF1y1EVybfexX1-106" edge="1">
          <mxGeometry relative="1" as="geometry">
            <mxPoint x="-37" y="-80" as="sourcePoint" />
            <mxPoint x="123" y="-80" as="targetPoint" />
          </mxGeometry>
        </mxCell>
        <mxCell id="2KIVhRjF1y1EVybfexX1-116" value="" style="endArrow=none;html=1;rounded=0;entryX=0.5;entryY=0;entryDx=0;entryDy=0;exitX=0.5;exitY=1;exitDx=0;exitDy=0;" parent="1" source="2KIVhRjF1y1EVybfexX1-112" target="2KIVhRjF1y1EVybfexX1-106" edge="1">
          <mxGeometry relative="1" as="geometry">
            <mxPoint x="121" y="-36" as="sourcePoint" />
            <mxPoint x="163" y="-69" as="targetPoint" />
          </mxGeometry>
        </mxCell>
        <mxCell id="2KIVhRjF1y1EVybfexX1-117" value="" style="endArrow=none;html=1;rounded=0;entryX=0.959;entryY=0.711;entryDx=0;entryDy=0;exitX=0;exitY=0.25;exitDx=0;exitDy=0;entryPerimeter=0;" parent="1" source="2KIVhRjF1y1EVybfexX1-1" target="2KIVhRjF1y1EVybfexX1-110" edge="1">
          <mxGeometry relative="1" as="geometry">
            <mxPoint x="143" y="79" as="sourcePoint" />
            <mxPoint x="185" y="46" as="targetPoint" />
          </mxGeometry>
        </mxCell>
        <mxCell id="2KIVhRjF1y1EVybfexX1-118" value="" style="endArrow=none;html=1;rounded=0;entryX=0;entryY=1;entryDx=0;entryDy=0;exitX=0.75;exitY=0;exitDx=0;exitDy=0;" parent="1" source="2KIVhRjF1y1EVybfexX1-1" target="2KIVhRjF1y1EVybfexX1-107" edge="1">
          <mxGeometry relative="1" as="geometry">
            <mxPoint x="166" y="47" as="sourcePoint" />
            <mxPoint x="208" y="14" as="targetPoint" />
          </mxGeometry>
        </mxCell>
        <mxCell id="2KIVhRjF1y1EVybfexX1-119" value="" style="endArrow=none;html=1;rounded=0;entryX=0.5;entryY=1;entryDx=0;entryDy=0;exitX=0.25;exitY=0;exitDx=0;exitDy=0;" parent="1" source="2KIVhRjF1y1EVybfexX1-1" target="2KIVhRjF1y1EVybfexX1-106" edge="1">
          <mxGeometry relative="1" as="geometry">
            <mxPoint x="181" y="75" as="sourcePoint" />
            <mxPoint x="223" y="42" as="targetPoint" />
          </mxGeometry>
        </mxCell>
        <mxCell id="2KIVhRjF1y1EVybfexX1-120" value="Address" style="ellipse;whiteSpace=wrap;html=1;align=center;" parent="1" vertex="1">
          <mxGeometry x="52" y="70" width="100" height="40" as="geometry" />
        </mxCell>
        <mxCell id="2KIVhRjF1y1EVybfexX1-121" value="PostalCode" style="ellipse;whiteSpace=wrap;html=1;align=center;" parent="1" vertex="1">
          <mxGeometry x="-65" y="70" width="100" height="40" as="geometry" />
        </mxCell>
        <mxCell id="2KIVhRjF1y1EVybfexX1-124" value="" style="endArrow=none;html=1;rounded=0;entryX=1;entryY=0;entryDx=0;entryDy=0;exitX=0;exitY=1;exitDx=0;exitDy=0;" parent="1" source="2KIVhRjF1y1EVybfexX1-120" target="2KIVhRjF1y1EVybfexX1-131" edge="1">
          <mxGeometry relative="1" as="geometry">
            <mxPoint x="90" y="175" as="sourcePoint" />
            <mxPoint x="-0.09999999999990905" y="151.44000000000005" as="targetPoint" />
          </mxGeometry>
        </mxCell>
        <mxCell id="2KIVhRjF1y1EVybfexX1-125" value="" style="endArrow=none;html=1;rounded=0;entryX=1;entryY=0.5;entryDx=0;entryDy=0;exitX=0;exitY=0.5;exitDx=0;exitDy=0;" parent="1" source="2KIVhRjF1y1EVybfexX1-120" target="2KIVhRjF1y1EVybfexX1-121" edge="1">
          <mxGeometry relative="1" as="geometry">
            <mxPoint x="90" y="165" as="sourcePoint" />
            <mxPoint x="132" y="114" as="targetPoint" />
          </mxGeometry>
        </mxCell>
        <mxCell id="2KIVhRjF1y1EVybfexX1-126" value="Street" style="ellipse;whiteSpace=wrap;html=1;align=center;" parent="1" vertex="1">
          <mxGeometry x="57" y="120" width="100" height="40" as="geometry" />
        </mxCell>
        <mxCell id="2KIVhRjF1y1EVybfexX1-130" value="" style="endArrow=none;html=1;rounded=0;entryX=0.5;entryY=0;entryDx=0;entryDy=0;exitX=0.5;exitY=1;exitDx=0;exitDy=0;" parent="1" source="2KIVhRjF1y1EVybfexX1-120" target="2KIVhRjF1y1EVybfexX1-126" edge="1">
          <mxGeometry relative="1" as="geometry">
            <mxPoint x="214" y="212" as="sourcePoint" />
            <mxPoint x="256" y="161" as="targetPoint" />
          </mxGeometry>
        </mxCell>
        <mxCell id="2KIVhRjF1y1EVybfexX1-131" value="City" style="ellipse;whiteSpace=wrap;html=1;align=center;" parent="1" vertex="1">
          <mxGeometry x="-48" y="113" width="100" height="40" as="geometry" />
        </mxCell>
        <mxCell id="2KIVhRjF1y1EVybfexX1-133" value="" style="endArrow=none;html=1;rounded=0;entryX=1;entryY=0.5;entryDx=0;entryDy=0;exitX=-0.004;exitY=0.661;exitDx=0;exitDy=0;exitPerimeter=0;" parent="1" source="2KIVhRjF1y1EVybfexX1-1" target="2KIVhRjF1y1EVybfexX1-120" edge="1">
          <mxGeometry relative="1" as="geometry">
            <mxPoint x="153.99999999999977" y="69" as="sourcePoint" />
            <mxPoint x="128" y="77" as="targetPoint" />
          </mxGeometry>
        </mxCell>
        <mxCell id="2KIVhRjF1y1EVybfexX1-134" value="" style="endArrow=none;html=1;rounded=0;entryX=1.002;entryY=0.395;entryDx=0;entryDy=0;exitX=0;exitY=1;exitDx=0;exitDy=0;entryPerimeter=0;" parent="1" source="2KIVhRjF1y1EVybfexX1-10" target="2KIVhRjF1y1EVybfexX1-111" edge="1">
          <mxGeometry relative="1" as="geometry">
            <mxPoint x="458" y="154" as="sourcePoint" />
            <mxPoint x="455" y="164" as="targetPoint" />
          </mxGeometry>
        </mxCell>
        <mxCell id="2KIVhRjF1y1EVybfexX1-136" value="" style="endArrow=none;html=1;rounded=0;entryX=0.75;entryY=1;entryDx=0;entryDy=0;exitX=0;exitY=0;exitDx=0;exitDy=0;" parent="1" source="2KIVhRjF1y1EVybfexX1-108" target="2KIVhRjF1y1EVybfexX1-1" edge="1">
          <mxGeometry relative="1" as="geometry">
            <mxPoint x="232" y="148" as="sourcePoint" />
            <mxPoint x="246" y="118" as="targetPoint" />
          </mxGeometry>
        </mxCell>
        <mxCell id="2KIVhRjF1y1EVybfexX1-137" value="" style="shape=requiredInterface;html=1;verticalLabelPosition=bottom;sketch=0;rotation=125;" parent="1" vertex="1">
          <mxGeometry x="352.0003933568352" y="342.0012482046225" width="18" height="29.02" as="geometry" />
        </mxCell>
        <mxCell id="2KIVhRjF1y1EVybfexX1-140" value="AreaOfResponsibility" style="ellipse;whiteSpace=wrap;html=1;align=center;" parent="1" vertex="1">
          <mxGeometry x="457" y="272.5" width="134" height="45" as="geometry" />
        </mxCell>
        <mxCell id="2KIVhRjF1y1EVybfexX1-141" value="Shift" style="ellipse;whiteSpace=wrap;html=1;align=center;" parent="1" vertex="1">
          <mxGeometry x="413" y="324" width="100" height="40" as="geometry" />
        </mxCell>
        <mxCell id="2KIVhRjF1y1EVybfexX1-142" value="" style="endArrow=none;html=1;rounded=0;entryX=0.75;entryY=1;entryDx=0;entryDy=0;exitX=0;exitY=0;exitDx=0;exitDy=0;" parent="1" source="2KIVhRjF1y1EVybfexX1-141" target="2KIVhRjF1y1EVybfexX1-29" edge="1">
          <mxGeometry relative="1" as="geometry">
            <mxPoint x="508" y="325" as="sourcePoint" />
            <mxPoint x="446" y="327" as="targetPoint" />
            <Array as="points" />
          </mxGeometry>
        </mxCell>
        <mxCell id="2KIVhRjF1y1EVybfexX1-143" value="StaffID" style="ellipse;whiteSpace=wrap;html=1;align=center;fontStyle=4;" parent="1" vertex="1">
          <mxGeometry x="18.25" y="371.02" width="100" height="40" as="geometry" />
        </mxCell>
        <mxCell id="2KIVhRjF1y1EVybfexX1-144" value="" style="endArrow=none;html=1;rounded=0;entryX=1;entryY=0.5;entryDx=0;entryDy=0;exitX=0;exitY=0.5;exitDx=0;exitDy=0;" parent="1" source="2KIVhRjF1y1EVybfexX1-84" target="2KIVhRjF1y1EVybfexX1-143" edge="1">
          <mxGeometry relative="1" as="geometry">
            <mxPoint x="80" y="433" as="sourcePoint" />
            <mxPoint x="99" y="404" as="targetPoint" />
          </mxGeometry>
        </mxCell>
        <mxCell id="2KIVhRjF1y1EVybfexX1-145" value="Name" style="ellipse;whiteSpace=wrap;html=1;align=center;" parent="1" vertex="1">
          <mxGeometry x="18.25" y="416" width="100" height="40" as="geometry" />
        </mxCell>
        <mxCell id="2KIVhRjF1y1EVybfexX1-146" value="FirstName" style="ellipse;whiteSpace=wrap;html=1;align=center;" parent="1" vertex="1">
          <mxGeometry x="-100" y="402" width="100" height="40" as="geometry" />
        </mxCell>
        <mxCell id="2KIVhRjF1y1EVybfexX1-147" value="" style="endArrow=none;html=1;rounded=0;entryX=1;entryY=0;entryDx=0;entryDy=0;exitX=0;exitY=1;exitDx=0;exitDy=0;" parent="1" source="2KIVhRjF1y1EVybfexX1-145" target="2KIVhRjF1y1EVybfexX1-151" edge="1">
          <mxGeometry relative="1" as="geometry">
            <mxPoint x="119" y="564" as="sourcePoint" />
            <mxPoint x="28.90000000000009" y="540.44" as="targetPoint" />
          </mxGeometry>
        </mxCell>
        <mxCell id="2KIVhRjF1y1EVybfexX1-148" value="" style="endArrow=none;html=1;rounded=0;entryX=1;entryY=0.5;entryDx=0;entryDy=0;exitX=0;exitY=0.5;exitDx=0;exitDy=0;" parent="1" source="2KIVhRjF1y1EVybfexX1-145" target="2KIVhRjF1y1EVybfexX1-146" edge="1">
          <mxGeometry relative="1" as="geometry">
            <mxPoint x="119" y="554" as="sourcePoint" />
            <mxPoint x="161" y="503" as="targetPoint" />
          </mxGeometry>
        </mxCell>
        <mxCell id="2KIVhRjF1y1EVybfexX1-149" value="HireDate" style="ellipse;whiteSpace=wrap;html=1;align=center;" parent="1" vertex="1">
          <mxGeometry x="107" y="456" width="100" height="40" as="geometry" />
        </mxCell>
        <mxCell id="2KIVhRjF1y1EVybfexX1-150" value="" style="endArrow=none;html=1;rounded=0;entryX=0.5;entryY=0;entryDx=0;entryDy=0;exitX=0.25;exitY=1;exitDx=0;exitDy=0;" parent="1" source="2KIVhRjF1y1EVybfexX1-84" target="2KIVhRjF1y1EVybfexX1-149" edge="1">
          <mxGeometry relative="1" as="geometry">
            <mxPoint x="243" y="601" as="sourcePoint" />
            <mxPoint x="285" y="550" as="targetPoint" />
          </mxGeometry>
        </mxCell>
        <mxCell id="2KIVhRjF1y1EVybfexX1-151" value="LastName" style="ellipse;whiteSpace=wrap;html=1;align=center;" parent="1" vertex="1">
          <mxGeometry x="-72" y="450" width="100" height="40" as="geometry" />
        </mxCell>
        <mxCell id="2KIVhRjF1y1EVybfexX1-152" value="" style="endArrow=none;html=1;rounded=0;entryX=1;entryY=0.5;entryDx=0;entryDy=0;exitX=0;exitY=0.75;exitDx=0;exitDy=0;" parent="1" source="2KIVhRjF1y1EVybfexX1-84" target="2KIVhRjF1y1EVybfexX1-145" edge="1">
          <mxGeometry relative="1" as="geometry">
            <mxPoint x="80" y="449" as="sourcePoint" />
            <mxPoint x="42" y="435" as="targetPoint" />
          </mxGeometry>
        </mxCell>
      </root>
    </mxGraphModel>
  </diagram>
</mxfile>
